<!DOCTYPE svg PUBLIC "-//W3C//DTD SVG 1.1//EN" "http://www.w3.org/Graphics/SVG/1.1/DTD/svg11.dtd">
<!-- Uploaded to: SVG Repo, www.svgrepo.com, Transformed by: SVG Repo Mixer Tools -->
<svg version="1.1" id="Layer_1" xmlns="http://www.w3.org/2000/svg" xmlns:xlink="http://www.w3.org/1999/xlink" viewBox="0 0 512 512" xml:space="preserve" width="77px" height="77px" fill="#000000">
<g id="SVGRepo_bgCarrier" stroke-width="0"/>
<g id="SVGRepo_tracerCarrier" stroke-linecap="round" stroke-linejoin="round"/>
<g id="SVGRepo_iconCarrier"> <path style="fill:#F4F4F4;" d="M409.577,4.487H8.01C3.586,4.487,0,8.073,0,12.497v487.007c0,4.424,3.586,8.01,8.01,8.01h324.671 c2.124,0,4.162-0.844,5.664-2.346l76.896-76.896c1.503-1.502,2.346-3.539,2.346-5.664V12.496 C417.587,8.073,414.001,4.487,409.577,4.487z"/> <g> <path style="fill:#E9E9E9;" d="M8.01,4.487C3.586,4.487,0,8.073,0,12.497v487.007c0,4.424,3.586,8.01,8.01,8.01h232.28 L30.748,4.487H8.01z"/> <path style="fill:#E9E9E9;" d="M332.948,430.617V507.5c1.991-0.067,3.93-0.866,5.397-2.334l76.896-76.896 c1.531-1.531,2.326-3.58,2.327-5.664h-76.61C336.534,422.607,332.948,426.194,332.948,430.617z"/> </g> <g> <rect x="264.863" y="134.247" style="fill:#6DDAE1;" width="58.74" height="162.336"/> <rect x="93.984" y="134.247" style="fill:#6DDAE1;" width="58.74" height="162.336"/> </g> <g> <rect x="264.863" y="134.247" style="fill:#4FC4D4;" width="58.74" height="27.412"/> <rect x="93.984" y="134.247" style="fill:#4FC4D4;" width="58.74" height="27.412"/> </g> <path style="fill:#6DDAE1;" d="M319.911,104.006l-106.8-68.352c-2.633-1.684-6.003-1.684-8.636,0l-106.8,68.352 c-0.618,0.395-1.148,0.88-1.621,1.407h225.479C321.059,104.886,320.529,104.401,319.911,104.006z"/> <g> <path style="fill:#FFD791;" d="M349.769,102.742H67.818c-4.424,0-8.01,3.586-8.01,8.01v25.632c0,4.424,3.586,8.01,8.01,8.01 h281.951c4.424,0,8.01-3.586,8.01-8.01v-25.632C357.779,106.329,354.193,102.742,349.769,102.742z"/> <path style="fill:#FFD791;" d="M349.769,290.71H67.818c-4.424,0-8.01,3.586-8.01,8.01v25.632c0,4.424,3.586,8.01,8.01,8.01h281.951 c4.424,0,8.01-3.586,8.01-8.01V298.72C357.779,294.296,354.193,290.71,349.769,290.71z"/> </g> <path style="fill:#96CA62;" d="M223.745,209.542h-6.942v-22.428h17.622c4.424,0,8.01-3.586,8.01-8.01s-3.586-8.01-8.01-8.01h-17.622 v-9.078c0-4.424-3.586-8.01-8.01-8.01s-8.01,3.586-8.01,8.01v9.078h-6.942c-10.305,0-18.69,8.385-18.69,18.69v17.088 c0,10.305,8.385,18.69,18.69,18.69h6.942v22.428h-17.622c-4.424,0-8.01,3.586-8.01,8.01s3.586,8.01,8.01,8.01h17.622v9.078 c0,4.424,3.586,8.01,8.01,8.01s8.01-3.586,8.01-8.01v-9.078h6.942c10.305,0,18.69-8.385,18.69-18.69v-17.088 C242.435,217.926,234.051,209.542,223.745,209.542z M193.841,209.542c-1.472,0-2.67-1.198-2.67-2.67v-17.088 c0-1.472,1.198-2.67,2.67-2.67h6.942v22.428H193.841z M226.415,245.32c0,1.472-1.198,2.67-2.67,2.67h-6.942v-22.428h6.942 c1.472,0,2.67,1.198,2.67,2.67V245.32z"/> <g> <path style="fill:#BDBCBC;" d="M204.521,417.801H101.994c-4.424,0-8.01-3.586-8.01-8.01s3.586-8.01,8.01-8.01h102.528 c4.424,0,8.01,3.586,8.01,8.01S208.945,417.801,204.521,417.801z"/> <path style="fill:#BDBCBC;" d="M230.153,460.521h-128.16c-4.424,0-8.01-3.586-8.01-8.01s3.586-8.01,8.01-8.01h128.16 c4.424,0,8.01,3.586,8.01,8.01S234.577,460.521,230.153,460.521z"/> <path style="fill:#BDBCBC;" d="M204.521,375.082H101.994c-4.424,0-8.01-3.586-8.01-8.01s3.586-8.01,8.01-8.01h102.528 c4.424,0,8.01,3.586,8.01,8.01S208.945,375.082,204.521,375.082z"/> </g> <path style="fill:#FFD791;" d="M250.624,392.474c-0.879,0.879-1.542,1.951-1.935,3.131l-18.124,54.374 c-0.959,2.878-0.21,6.051,1.935,8.197c1.527,1.527,3.574,2.346,5.665,2.346c0.847,0,1.702-0.135,2.532-0.411l54.374-18.125 c1.179-0.393,2.251-1.056,3.131-1.935l11.544-11.544l-47.577-47.577L250.624,392.474z"/> <path style="fill:#918F90;" d="M230.565,449.978c-2.046,6.138,3.989,12.178,10.132,10.132l18.139-6.046l-22.224-22.224 L230.565,449.978z"/> <path style="fill:#E9E9E9;" d="M509.654,217.27l-36.249-36.249c-3.127-3.129-8.199-3.128-11.327,0l-30.459,30.459 c-1.503,1.502-2.346,3.539-2.346,5.664c0,2.124,0.844,4.161,2.346,5.664l36.249,36.249c1.502,1.503,3.539,2.346,5.664,2.346 s4.162-0.844,5.664-2.346l30.459-30.459C512.782,225.47,512.782,220.398,509.654,217.27z"/> <rect x="331.388" y="197.844" transform="matrix(0.7071 0.7071 -0.7071 0.7071 337.1804 -162.7355)" style="fill:#FF8C78;" width="67.283" height="255.601"/> <path style="fill:#D3D2D2;" d="M473.405,181.021l11.235,11.235l-41.786,41.786l-11.235-11.235c-1.503-1.502-2.346-3.539-2.346-5.664 c0-2.124,0.844-4.162,2.346-5.664l30.459-30.459C465.205,177.893,470.277,177.893,473.405,181.021z"/> <rect x="337.745" y="182.494" transform="matrix(-0.7071 -0.7071 0.7071 -0.7071 377.5546 776.9778)" style="fill:#DF7A6E;" width="23.898" height="255.601"/> </g>
</svg>