<!DOCTYPE svg PUBLIC "-//W3C//DTD SVG 1.1//EN" "http://www.w3.org/Graphics/SVG/1.1/DTD/svg11.dtd">
<!-- Uploaded to: SVG Repo, www.svgrepo.com, Transformed by: SVG Repo Mixer Tools -->
<svg version="1.1" id="Layer_1" xmlns="http://www.w3.org/2000/svg" xmlns:xlink="http://www.w3.org/1999/xlink" viewBox="0 0 512 512" xml:space="preserve" width="95px" height="95px" fill="#000000">
<g id="SVGRepo_bgCarrier" stroke-width="0"/>
<g id="SVGRepo_tracerCarrier" stroke-linecap="round" stroke-linejoin="round"/>
<g id="SVGRepo_iconCarrier"> <path style="fill:#A7A6A6;" d="M33.67,0h59.858c4.427,0,8.017,3.589,8.017,8.017v128.267c0,4.427-3.589,8.017-8.017,8.017H33.67 c-4.427,0-8.017-3.589-8.017-8.017V8.017C25.653,3.589,29.243,0,33.67,0z"/> <g> <rect x="25.653" y="34.205" style="fill:#918F90;" width="75.891" height="16.033"/> <rect x="25.653" y="68.409" style="fill:#918F90;" width="75.891" height="16.033"/> <path style="fill:#918F90;" d="M33.67,0h15.32v144.301H33.67c-4.427,0-8.017-3.589-8.017-8.017V8.017 C25.653,3.589,29.243,0,33.67,0z"/> </g> <g> <rect x="25.653" y="34.205" style="fill:#7B7979;" width="23.337" height="16.033"/> <rect x="25.653" y="68.409" style="fill:#7B7979;" width="23.337" height="16.033"/> <path style="fill:#7B7979;" d="M503.983,161.937h-17.637v-17.637c0-4.427-3.589-8.017-8.017-8.017s-8.017,3.589-8.017,8.017v17.637 H366.63v-17.637c0-4.427-3.589-8.017-8.017-8.017c-4.427,0-8.017,3.589-8.017,8.017v17.637h-51.841 c-4.427,0-8.017,3.589-8.017,8.017s3.589,8.017,8.017,8.017h51.841v26.188c0,4.427,3.589,8.017,8.017,8.017 c4.427,0,8.017-3.589,8.017-8.017v-26.188h103.683v26.188c0,4.427,3.589,8.017,8.017,8.017s8.017-3.589,8.017-8.017v-26.188h17.637 c4.427,0,8.017-3.589,8.017-8.017S508.411,161.937,503.983,161.937z"/> </g> <path style="fill:#6DDAE1;" d="M304.424,147.718L159.055,2.348c-3.131-3.131-8.207-3.131-11.337,0L2.348,147.718 C0.844,149.221,0,151.26,0,153.386v350.597C0,508.411,3.589,512,8.017,512h290.739c4.427,0,8.017-3.589,8.017-8.017V153.386 C306.772,151.26,305.928,149.221,304.424,147.718z"/> <path style="fill:#4FC4D4;" d="M2.348,147.718C0.844,149.221,0,151.26,0,153.386v350.597C0,508.411,3.589,512,8.017,512h26.188 V115.862L2.348,147.718z"/> <path style="fill:#FFD791;" d="M213.244,290.739H93.528c-4.427,0-8.017,3.589-8.017,8.017V512h135.749V298.756 C221.261,294.328,217.672,290.739,213.244,290.739z"/> <path style="fill:#F8BE73;" d="M213.244,282.722H93.528c-8.841,0-16.033,7.193-16.033,16.033V512h16.033V298.756h119.716V512h16.033 V298.756C229.278,289.915,222.085,282.722,213.244,282.722z"/> <path style="fill:#FFD791;" d="M213.244,153.921H93.528c-4.427,0-8.017,3.589-8.017,8.017V256c0,4.427,3.589,8.017,8.017,8.017 h119.716c4.427,0,8.017-3.589,8.017-8.017v-94.063C221.261,157.51,217.672,153.921,213.244,153.921z"/> <path style="fill:#F8BE73;" d="M213.244,145.904H93.528c-8.841,0-16.033,7.193-16.033,16.033V256 c0,8.841,7.193,16.033,16.033,16.033h119.716c8.841,0,16.033-7.193,16.033-16.033v-94.063 C229.278,153.097,222.085,145.904,213.244,145.904z M213.244,200.952h-51.841v-39.015h51.841V200.952z M145.37,161.937v39.015 H93.528v-39.015H145.37z M93.528,216.985h51.841V256H93.528V216.985z M161.403,256v-39.015h51.841V256H161.403z"/> <path style="fill:#FF8C78;" d="M503.983,188.125H332.96c-4.427,0-8.017,3.589-8.017,8.017v230.881c0,4.427,3.589,8.017,8.017,8.017 h171.023c4.427,0,8.017-3.589,8.017-8.017V196.142C512,191.715,508.411,188.125,503.983,188.125z"/> <path style="fill:#DF7A6E;" d="M332.96,188.125c-4.427,0-8.017,3.589-8.017,8.017v230.881c0,4.427,3.589,8.017,8.017,8.017h123.936 L347.781,188.125H332.96z"/> <path style="fill:#FFD6C4;" d="M445.194,303.566h-18.706V251.19h34.739c4.427,0,8.017-3.589,8.017-8.017s-3.589-8.017-8.017-8.017 h-34.739v-9.086c0-4.427-3.589-8.017-8.017-8.017c-4.427,0-8.017,3.589-8.017,8.017v9.086h-18.706 c-13.262,0-24.05,10.788-24.05,24.05v36.342c0,13.262,10.788,24.05,24.05,24.05h18.706v52.376h-34.739 c-4.427,0-8.017,3.589-8.017,8.017c0,4.427,3.589,8.017,8.017,8.017h34.739v9.086c0,4.427,3.589,8.017,8.017,8.017 c4.427,0,8.017-3.589,8.017-8.017v-9.086h18.706c13.262,0,24.05-10.788,24.05-24.05v-36.342 C469.244,314.354,458.456,303.566,445.194,303.566z M391.749,303.566c-4.421,0-8.017-3.596-8.017-8.017v-36.342 c0-4.421,3.596-8.017,8.017-8.017h18.706v52.376H391.749z M453.211,363.958c0,4.421-3.596,8.017-8.017,8.017h-18.706v-52.376h18.706 c4.421,0,8.017,3.596,8.017,8.017V363.958z"/> </g>
</svg>