<?xml version="1.0" encoding="iso-8859-1"?>
<!-- Uploaded to: SVG Repo, www.svgrepo.com, Generator: SVG Repo Mixer Tools -->
<svg version="1.1" id="Layer_1" xmlns="http://www.w3.org/2000/svg" xmlns:xlink="http://www.w3.org/1999/xlink" 
	 viewBox="0 0 511.999 511.999" xml:space="preserve">
<path style="fill:#77B8E8;" d="M495.911,452.014c0,19.922-16.299,36.222-36.222,36.222h-72.608c-19.921,0-36.222-16.3-36.222-36.222
	v-245.76c0-19.921,16.299-36.223,36.222-36.223h72.608c19.923,0,36.222,16.301,36.222,36.223L495.911,452.014L495.911,452.014z"/>
<path style="fill:#009BDE;" d="M447.135,170.029H44.356c-19.923,0-36.222,16.301-36.222,36.223v245.76
	c0,19.922,16.299,36.222,36.222,36.222h402.778c19.923,0,36.222-16.3,36.222-36.222V206.253
	C483.356,186.332,467.057,170.029,447.135,170.029z"/>
<rect x="58.174" y="245.33" style="fill:#FFFFFF;" width="141.581" height="150.225"/>
<g>
	<path style="fill:#3E4A57;" d="M163.649,304.382c0-19.154-15.527-34.683-34.683-34.683c-19.155,0-34.684,15.528-34.684,34.683
		c0,19.158,15.528,34.684,34.684,34.684C148.122,339.066,163.649,323.539,163.649,304.382z"/>
	<path style="fill:#3E4A57;" d="M128.966,351.42c-29.359,0-54.429,18.312-64.452,44.13h128.904
		C183.395,369.731,158.327,351.42,128.966,351.42z"/>
</g>
<g>
	<rect x="233.086" y="245.33" style="fill:#333E48;" width="211.915" height="24.371"/>
	<rect x="233.086" y="296.067" style="fill:#333E48;" width="211.915" height="24.368"/>
</g>
<rect x="208.564" y="100.42" style="fill:#F6C65B;" width="74.358" height="94.683"/>
<path style="fill:#333E48;" d="M239.923,134.449c-30.568,0-55.343-24.777-55.343-55.344c0-30.561,24.776-55.34,55.343-55.34h11.644
	c30.568,0,55.343,24.78,55.343,55.34c0,30.568-24.776,55.344-55.343,55.344H239.923z"/>
<path style="fill:#3E4A57;" d="M295.264,79.105c0-30.561-24.777-55.34-55.34-55.34c-30.568,0-55.343,24.78-55.343,55.34
	c0,30.568,24.776,55.344,55.343,55.344C270.488,134.449,295.264,109.672,295.264,79.105z"/>
<path style="fill:#A4A9AD;" d="M270.787,79.105c0-17.046-13.817-30.863-30.864-30.863s-30.868,13.816-30.868,30.863
	c0,17.05,13.822,30.866,30.868,30.866S270.787,96.154,270.787,79.105z"/>
<rect x="350.86" y="369.178" style="fill:#FFFFFF;" width="94.13" height="26.371"/>
<path d="M239.923,118.105c21.504,0,38.998-17.495,38.998-39c0-21.503-17.494-38.997-38.998-38.997
	c-21.506,0-39.002,17.494-39.002,38.997C200.921,100.61,218.417,118.105,239.923,118.105z M239.923,56.376
	c12.533,0,22.729,10.195,22.729,22.728c0,12.534-10.196,22.732-22.729,22.732c-12.536,0-22.734-10.197-22.734-22.732
	C217.19,66.572,227.388,56.376,239.923,56.376z M467.644,161.895H291.057v-27.944c18.867-11.016,31.58-31.469,31.58-54.847
	c0-35-28.476-63.475-63.477-63.475h-19.238c-35,0.001-63.475,28.476-63.475,63.475c0,20.083,9.385,38.005,23.988,49.644v33.147
	H44.356C19.899,161.895,0,181.794,0,206.253v245.76c0,24.458,19.899,44.356,44.356,44.356h423.287
	c24.458,0,44.356-19.899,44.356-44.356v-245.76C512,181.794,492.102,161.895,467.644,161.895z M296.336,50.062
	c6.276,8.016,10.032,18.096,10.032,29.042c0,10.949-3.757,21.03-10.033,29.045c4.503-8.71,7.064-18.582,7.064-29.045
	C303.398,68.642,300.839,58.772,296.336,50.062z M192.714,79.105c0-26.03,21.177-47.206,47.208-47.206
	c26.03,0,47.206,21.176,47.206,47.206c0,26.032-21.176,47.209-47.206,47.209S192.714,105.136,192.714,79.105z M274.788,140.631
	v46.342h-58.087v-48.807c7.197,2.839,15.026,4.417,23.219,4.417h19.238C264.552,142.583,269.786,141.903,274.788,140.631z
	 M475.222,452.014c0,15.488-12.6,28.087-28.087,28.087H44.356c-15.488,0-28.087-12.6-28.087-28.087v-245.76
	c0-15.488,12.6-28.088,28.087-28.088h156.077v16.942c0,4.493,3.641,8.134,8.134,8.134h74.355c4.493,0,8.134-3.641,8.134-8.134
	v-16.942h156.077c15.488,0,28.087,12.601,28.087,28.088v245.76H475.222z M495.731,452.014c0,8.412-3.722,15.966-9.598,21.118
	c3.415-6.283,5.357-13.478,5.357-21.118v-245.76c0-7.64-1.941-14.835-5.357-21.118c5.877,5.152,9.598,12.706,9.598,21.118V452.014z
	 M444.993,361.045H350.86c-4.493,0-8.134,3.641-8.134,8.134v26.371c0,4.492,3.641,8.134,8.134,8.134h94.132
	c4.493,0,8.134-3.642,8.134-8.134v-26.371C453.127,364.686,449.486,361.045,444.993,361.045z M436.858,387.415h-77.864v-10.103
	h77.864V387.415z M444.993,287.936H233.082c-4.493,0-8.134,3.641-8.134,8.134v24.368c0,4.492,3.641,8.134,8.134,8.134h211.911
	c4.493,0,8.134-3.642,8.134-8.134V296.07C453.127,291.578,449.486,287.936,444.993,287.936z M436.858,312.304H241.216v-8.1h195.642
	V312.304z M199.758,237.194H58.174c-4.493,0-8.134,3.641-8.134,8.134V395.55c0,4.492,3.641,8.134,8.134,8.134h141.584
	c4.493,0,8.134-3.642,8.134-8.134V245.328C207.893,240.836,204.251,237.194,199.758,237.194z M191.624,387.415H66.309V253.463
	h125.315V387.415z M444.993,237.194H233.082c-4.493,0-8.134,3.641-8.134,8.134V269.7c0,4.493,3.641,8.134,8.134,8.134h211.911
	c4.493,0,8.134-3.641,8.134-8.134v-24.371C453.127,240.836,449.486,237.194,444.993,237.194z M436.858,261.565H241.216v-8.103
	h195.642V261.565z"/>
</svg>