<!DOCTYPE svg PUBLIC "-//W3C//DTD SVG 1.1//EN" "http://www.w3.org/Graphics/SVG/1.1/DTD/svg11.dtd">
<!-- Uploaded to: SVG Repo, www.svgrepo.com, Transformed by: SVG Repo Mixer Tools -->
<svg fill="#f58e2e" width="73px" height="73px" viewBox="0 0 24.00 24.00" xmlns="http://www.w3.org/2000/svg" stroke="#f58e2e">
<g id="SVGRepo_bgCarrier" stroke-width="0">
<rect x="0" y="0" width="24.00" height="24.00" rx="0" fill="#00000000" strokewidth="0"/>
</g>
<g id="SVGRepo_tracerCarrier" stroke-linecap="round" stroke-linejoin="round"/>
<g id="SVGRepo_iconCarrier">
<path d="M20,18H4l2-2V10a6,6,0,0,1,5-5.91V3a1,1,0,0,1,2,0V4.09a5.9,5.9,0,0,1,1.3.4A3.992,3.992,0,0,0,18,10v6Zm-8,4a2,2,0,0,0,2-2H10A2,2,0,0,0,12,22ZM18,4a2,2,0,1,0,2,2A2,2,0,0,0,18,4Z"/>
</g>
</svg>